# xmcd
#
# Track frame offsets:
#	150
#	31828
#	65859
#	114555
#	166457
#	201274
#	235244
#	274967
#
# Disc length: 4309 seconds
#
# Revision: 1
# Processed by: cddbd v1.5.1PL0 Copyright (c) Steve Scherf et al.
# Submitted via: audiograbber 1.83.01
#
DISCID=7510d308
DTITLE=Ensemble Brasil - Ensemble Brasil
DYEAR=1900
DGENRE=Latin
TTITLE0=Partido Alto
TTITLE1=Baiaosinho
TTITLE2=Bye Bye Brasil
TTITLE3=Sweet Modulation
TTITLE4=Carioca
TTITLE5=Coisa Nr. 1
TTITLE6=Flor de Liz
TTITLE7=Sambalanco
EXTD=Staatl. Hochschule für Musik und Darstellende Kunst Heidelberg-Mannheim
EXTT0=
EXTT1=
EXTT2=
EXTT3=
EXTT4=
EXTT5=
EXTT6=
EXTT7=
PLAYORDER=
